<?xml version="1.0" encoding="iso-8859-1"?>
<!-- Generator: Adobe Illustrator 19.0.0, SVG Export Plug-In . SVG Version: 6.00 Build 0)  -->
<svg version="1.1" id="Capa_1" xmlns="http://www.w3.org/2000/svg" xmlns:xlink="http://www.w3.org/1999/xlink" x="0px" y="0px"
	 viewBox="0 0 450.589 450.589" style="enable-background:new 0 0 450.589 450.589;" xml:space="preserve">
<g>
	<path style="fill:#B7AE9F;" d="M284.437,90.484l19.04-32l0.8-0.8c6.324-5.801,14.619-8.976,23.2-8.88
		c18.688-0.218,34.015,14.755,34.233,33.443c0.104,8.875-3.284,17.436-9.433,23.837l-0.56,0.64l-38,26.32L284.437,90.484z"/>
	<path style="fill:#B7AE9F;" d="M56.517,402.244c-12.898-0.18-25.27-5.14-34.72-13.92c-13.84-13.84-19.76-41.68-7.04-54.48
		l219.52-194.08l43.92,28.4l-201.28,226.48C71.43,399.841,64.066,402.585,56.517,402.244L56.517,402.244z"/>
</g>
<g>
	<path style="fill:#F09052;" d="M315.397,297.364c-22.718,0.214-44.894-6.944-63.2-20.4l-11.76-8.88l13.6-5.2
		c16-6,43.2-19.28,51.6-40.64c4.196-11.36,3.019-24.009-3.2-34.4l-2.72-5.2l28.4-28.4l5.2,2.72c6.499,3.601,13.772,5.577,21.2,5.76
		c28.8,0,46.08-33.92,53.84-54.16l5.2-13.6l8.72,11.68c32.72,44.08,25.12,109.6-17.68,152.4
		C381.049,283.035,349.008,296.8,315.397,297.364L315.397,297.364z"/>
	<path style="fill:#F09052;" d="M213.957,123.924l55.36-55.36l58.96,85.52l-28.72,28.8L213.957,123.924z"/>
</g>
	<path style="fill:#3A302B;" d="M410.597,87.924c-2.776,0.737-4.943,2.904-5.68,5.68c-4.56,17.04-22.4,61.2-50.4,61.2
	c-7.361-0.331-14.495-2.654-20.64-6.72l-9.04-13.12l31.36-21.6l1.12-0.96c16.436-16.436,16.436-43.084,0-59.52
	c-16.436-16.436-43.084-16.436-59.52,0l0,0c-0.465,0.481-0.868,1.019-1.2,1.6l-12.64,21.28l-8-11.68
	c-2.508-3.638-7.489-4.554-11.127-2.046c-0.398,0.274-0.771,0.585-1.113,0.926l-55.36,55.36c-3.151,3.097-3.196,8.162-0.099,11.313
	c0.303,0.308,0.63,0.591,0.979,0.847l13.12,9.04L9.237,327.844c-16,16.48-9.6,49.52,6.88,66.16c10.88,10.121,25.141,15.825,40,16
	c9.681,0.38,19.099-3.202,26.08-9.92l197.28-221.36l14.08,9.68c6.502,8.913,8.262,20.432,4.72,30.88c-10.56,26.96-58.72,40-59.2,40
	c-4.267,1.148-6.794,5.538-5.646,9.804c0.361,1.343,1.067,2.569,2.046,3.556c21.333,20.908,50.133,32.428,80,32
	c35.619-0.404,69.658-14.766,94.8-40c50.4-50.4,54.08-128.88,8-174.8C416.235,87.894,413.316,87.164,410.597,87.924L410.597,87.924z
	 M309.797,63.444c10.388-9.216,26.104-8.937,36.16,0.64c10.002,9.997,10.215,26.143,0.48,36.4l-30.8,21.28l-21.68-31.6
	L309.797,63.444z M70.997,389.364c-4.004,3.463-9.194,5.24-14.48,4.96c-10.769-0.202-21.095-4.327-29.04-11.6
	c-10.96-10.96-16-34-6.96-43.2l214.48-189.76l30.96,20L70.997,389.364z M298.597,172.564l-16-11.04l-56-38.64l41.6-41.52l49.76,72
	L298.597,172.564z M398.917,253.444c-22.051,22.464-52.046,35.365-83.52,35.92c-20.92,0.093-41.314-6.556-58.16-18.96
	c17.6-6.72,46.8-21.12,56-45.12c5.03-13.526,3.708-28.597-3.6-41.04l19.6-20.16c7.634,4.193,16.172,6.472,24.88,6.64
	c33.92,0,53.2-38.08,61.28-59.28C445.877,151.924,439.477,212.884,398.917,253.444L398.917,253.444z"/>
	<g>
</g>
<g>
</g>
<g>
</g>
<g>
</g>
<g>
</g>
<g>
</g>
<g>
</g>
<g>
</g>
<g>
</g>
<g>
</g>
<g>
</g>
<g>
</g>
<g>
</g>
<g>
</g>
<g>
</g>
</svg>
