<?xml version="1.0" encoding="iso-8859-1"?>
<!-- Generator: Adobe Illustrator 19.0.0, SVG Export Plug-In . SVG Version: 6.00 Build 0)  -->
<svg version="1.1" id="Capa_1" xmlns="http://www.w3.org/2000/svg" xmlns:xlink="http://www.w3.org/1999/xlink" x="0px" y="0px"
	 viewBox="0 0 353.528 353.528" style="enable-background:new 0 0 353.528 353.528;" xml:space="preserve">
<path style="fill:#FCC00F;" d="M270.774,35.454l70.72-25.52l-25.52,70.72L270.774,35.454z"/>
<path style="fill:#F09052;" d="M230.134,110.414c-28.436-26.333-59.475-49.707-92.64-69.76l6.64-14.48
	c39.851,12.6,76.749,33.117,108.48,60.32l6.48,5.6l-23.36,23.36L230.134,110.414z"/>
<path style="fill:#FCC00F;" d="M64.934,286.494l-56.88-2.56l40.88-40.96l56.88,2.64l2.56,56.88l-40.88,40.88L64.934,286.494z"/>
<path style="fill:#F09052;" d="M316.614,214.894c-21.203-34.072-46.395-65.494-75.04-93.6l-5.76-5.68l23.28-23.28l5.68,5.6
	c30.927,30.851,53.714,68.895,66.32,110.72L316.614,214.894z"/>
<path style="fill:#3A302B;" d="M293.414,69.294l16.96,16.96c1.51,1.497,3.554,2.332,5.68,2.32h1.76c2.67-0.608,4.843-2.54,5.76-5.12
	l25.44-70.72c1.499-4.156-0.655-8.741-4.811-10.24c-1.754-0.633-3.675-0.633-5.429,0l-70.72,25.36
	c-4.206,1.352-6.52,5.859-5.167,10.065c0.378,1.177,1.024,2.25,1.887,3.135l16.96,16.96l-23.28,23.28
	c-82.96-72.8-190.24-79.04-192-79.12c-4.18-0.013-7.666,3.193-8,7.36l-17.28,229.92l-38.8,38.8
	c-3.141,3.107-3.169,8.172-0.061,11.314c1.418,1.434,3.326,2.279,5.341,2.366l49.52,2.32l2.32,49.6
	c0.191,4.414,3.924,7.838,8.339,7.646c2.015-0.087,3.923-0.932,5.341-2.366l38.72-38.72l234.08-13.04
	c4.411-0.247,7.788-4.023,7.541-8.434c-0.005-0.095-0.012-0.191-0.021-0.286c-5.6-91.68-40-154.08-82.96-196.56L293.414,69.294z
	 M328.214,23.214l-15.44,42.88l-27.36-27.36L328.214,23.214z M247.414,92.654l-11.84,12c-28.836-26.64-60.304-50.281-93.92-70.56
	C180.46,46.365,216.419,66.276,247.414,92.654z M74.694,324.654l-1.92-38.48c0-4.418-3.582-8-8-8l-38.72-1.76l25.6-25.6l46,2.16
	l2.16,46L74.694,324.654z M102.614,237.454l-45.12-2.08l16-216.48l8.88,1.12h0.4c51.609,24.808,99.27,57.103,141.44,95.84
	L102.614,237.454z M335.094,265.134c0.72,5.44,1.36,10.88,1.84,16.56l-220.88,12.32l-2.16-45.36l121.92-121.76
	c40.748,39.815,74.237,86.434,98.96,137.76L335.094,265.134z M323.414,210.734c-21.518-34.666-47.114-66.627-76.24-95.2l11.92-11.92
	C289.079,133.44,311.181,170.249,323.414,210.734L323.414,210.734z"/>
<g>
</g>
<g>
</g>
<g>
</g>
<g>
</g>
<g>
</g>
<g>
</g>
<g>
</g>
<g>
</g>
<g>
</g>
<g>
</g>
<g>
</g>
<g>
</g>
<g>
</g>
<g>
</g>
<g>
</g>
</svg>
