<?xml version="1.0" encoding="iso-8859-1"?>
<!-- Generator: Adobe Illustrator 19.0.0, SVG Export Plug-In . SVG Version: 6.00 Build 0)  -->
<svg version="1.1" id="Capa_1" xmlns="http://www.w3.org/2000/svg" xmlns:xlink="http://www.w3.org/1999/xlink" x="0px" y="0px"
	 viewBox="0 0 446.72 446.72" style="enable-background:new 0 0 446.72 446.72;" xml:space="preserve">
<path style="fill:#B7AE9F;" d="M191.56,438.72v-79.36c0-17.673,14.327-32,32-32s32,14.327,32,32v79.36H191.56z"/>
<path style="fill:#FCC00F;" d="M98.76,250.16l-56.8-56.8h363.2l-56.8,56.8H98.76z"/>
<path style="fill:#F09052;" d="M41.96,193.36V8H117v61.04h69.68V8h73.92v61.04h69.68V8h74.88v185.36H41.96z M345.96,100.64
	c-17.673,0-32,14.327-32,32s14.327,32,32,32s32-14.327,32-32C377.96,114.967,363.634,100.64,345.96,100.64
	c-0.079-0.001-0.16-0.001-0.24,0H345.96z M223.56,100.64c-17.673,0-32,14.327-32,32s14.327,32,32,32s32-14.327,32-32
	S241.233,100.64,223.56,100.64z M101.4,100.64c-17.673,0-32,14.327-32,32s14.327,32,32,32s32-14.327,32-32
	S119.073,100.64,101.4,100.64z"/>
<circle style="fill:#FCC00F;" cx="101.4" cy="132.8" r="32.16"/>
<path style="fill:#F09052;" d="M255.56,438.72v-79.36c0-17.673-14.327-32-32-32s-32,14.327-32,32v79.36h-92.8V250.16h249.6v188.56
	H255.56z"/>
<g>
	<circle style="fill:#FCC00F;" cx="223.56" cy="132.8" r="32.16"/>
	<circle style="fill:#FCC00F;" cx="345.72" cy="132.8" r="32.16"/>
</g>
<g>
	<path style="fill:#3A302B;" d="M405.16,0H330.2c-4.418,0-8,3.582-8,8v53.04h-53.68V8c0-4.418-3.582-8-8-8H186.6
		c-4.418,0-8,3.582-8,8v53.04h-53.68V8c0-4.418-3.582-8-8-8H41.96c-4.418,0-8,3.582-8,8v185.36c0,0,0,0,0,0.48
		c0.041,0.708,0.175,1.407,0.4,2.08v0.72c0.368,0.856,0.882,1.641,1.52,2.32l54.48,54.4v185.36c0,4.418,3.582,8,8,8h250
		c4.418,0,8-3.582,8-8V253.44l54.48-54.08c0.638-0.679,1.152-1.464,1.52-2.32v-0.72c0.225-0.673,0.359-1.372,0.4-2.08
		c0,0,0,0,0-0.48V8C412.765,3.733,409.421,0.213,405.16,0L405.16,0z M247.56,430.72h-48v-71.36c0-13.255,10.745-24,24-24
		c13.255,0,24,10.745,24,24V430.72z M340.28,430.72h-76.72v-71.36c0-22.091-17.909-40-40-40s-40,17.909-40,40v71.36h-76.8V258.16
		h233.6L340.28,430.72z M345,242.16H102.04l-40.8-40.8h324.64L345,242.16z M397.08,185.36H49.96V16H109v53.04c0,4.418,3.582,8,8,8
		h69.68c4.418,0,8-3.582,8-8V16h57.92v53.04c0,4.418,3.582,8,8,8h69.68c4.418,0,8-3.582,8-8V16h58.88L397.08,185.36z"/>
	<path style="fill:#3A302B;" d="M101.4,92.64c-22.091,0-40,17.909-40,40s17.909,40,40,40s40-17.909,40-40S123.491,92.64,101.4,92.64
		z M101.4,156.64c-13.255,0-24-10.745-24-24s10.745-24,24-24s24,10.745,24,24c0.177,13.254-10.424,24.141-23.678,24.318
		c-0.107,0.001-0.215,0.002-0.322,0.002V156.64z"/>
	<path style="fill:#3A302B;" d="M223.56,92.64c-22.091,0-40,17.909-40,40s17.909,40,40,40s40-17.909,40-40
		S245.651,92.64,223.56,92.64z M223.56,156.64c-13.255,0-24-10.745-24-24s10.745-24,24-24c13.255,0,24,10.745,24,24
		c0.177,13.254-10.424,24.141-23.678,24.318c-0.107,0.001-0.215,0.002-0.322,0.002V156.64z"/>
	<path style="fill:#3A302B;" d="M305.56,132.8c0,22.091,17.909,40,40,40s40-17.909,40-40s-17.909-40-40-40
		S305.56,110.709,305.56,132.8z M345.56,108.8c13.255,0,24,10.745,24,24s-10.745,24-24,24s-24-10.745-24-24
		c-0.089-13.255,10.584-24.071,23.839-24.16c0.107-0.001,0.214-0.001,0.321,0L345.56,108.8z"/>
</g>
<g>
</g>
<g>
</g>
<g>
</g>
<g>
</g>
<g>
</g>
<g>
</g>
<g>
</g>
<g>
</g>
<g>
</g>
<g>
</g>
<g>
</g>
<g>
</g>
<g>
</g>
<g>
</g>
<g>
</g>
</svg>
