<?xml version="1.0" encoding="iso-8859-1"?>
<!-- Generator: Adobe Illustrator 19.0.0, SVG Export Plug-In . SVG Version: 6.00 Build 0)  -->
<svg version="1.1" id="Capa_1" xmlns="http://www.w3.org/2000/svg" xmlns:xlink="http://www.w3.org/1999/xlink" x="0px" y="0px"
	 viewBox="0 0 466.743 466.743" style="enable-background:new 0 0 466.743 466.743;" xml:space="preserve">
<g>
	<circle style="fill:#FFFFFF;" cx="234.299" cy="361.488" r="18.48"/>
	<circle style="fill:#FFFFFF;" cx="234.299" cy="273.968" r="18.48"/>
	<circle style="fill:#FFFFFF;" cx="334.699" cy="273.968" r="18.48"/>
	<path style="fill:#FFFFFF;" d="M431.739,292.528c-10.206-0.006-18.475-8.285-18.468-18.492
		c0.006-10.197,8.271-18.462,18.468-18.468C441.979,255.488,441.979,292.528,431.739,292.528z"/>
	<circle style="fill:#FFFFFF;" cx="135.099" cy="273.968" r="18.48"/>
	<path style="fill:#FFFFFF;" d="M53.819,273.968c0,10.206-8.274,18.48-18.48,18.48c0,0,0,0,0,0c-10.24,0-10.24-36.96,0-36.96
		C45.546,255.488,53.819,263.762,53.819,273.968L53.819,273.968L53.819,273.968z"/>
</g>
<g>
	<path style="fill:#F09052;" d="M31.419,409.488v-46.56h183.04l1.76,5.6c3.003,9.985,13.532,15.645,23.518,12.642
		c6.069-1.825,10.817-6.574,12.642-12.642l1.76-5.6h183.12v46.56H31.419z"/>
	<path style="fill:#F09052;" d="M254.139,362.928l-1.76-5.6c-3.003-9.985-13.532-15.645-23.518-12.642
		c-6.069,1.825-10.817,6.574-12.642,12.642l-1.76,5.6H31.419v-46.8h405.84v46.72L254.139,362.928z"/>
</g>
<g>
	<path style="fill:#FCC00F;" d="M31.419,179.888h-1.52c-12.963-0.839-22.79-12.028-21.951-24.991
		c0.839-12.963,12.028-22.79,24.991-21.951s22.79,12.028,21.951,24.991c-0.764,11.792-10.159,21.187-21.951,21.951H31.419z"/>
	<circle style="fill:#FCC00F;" cx="126.219" cy="137.088" r="23.44"/>
	<circle style="fill:#FCC00F;" cx="234.299" cy="80.768" r="23.44"/>
	<circle style="fill:#FCC00F;" cx="344.779" cy="137.088" r="23.44"/>
	<path style="fill:#FCC00F;" d="M31.419,316.128v-20.72l6.24-1.36c10.25-2.346,16.658-12.558,14.312-22.808
		c-1.63-7.121-7.191-12.682-14.312-14.312l-6.24-1.36v-75.76l56.64,78.32l38-96l53.12,96l55.2-153.92l54.88,154l53.12-96l38,96
		l56.64-78.32v75.68l-6.24,1.36c-10.25,2.346-16.658,12.558-14.312,22.808c1.63,7.121,7.191,12.682,14.312,14.312l6.24,1.36v20.72
		L31.419,316.128z M334.779,256.368c-10.516,0-19.04,8.525-19.04,19.04c0,10.516,8.525,19.04,19.04,19.04
		c10.516,0,19.04-8.525,19.04-19.04c-0.044-10.528-8.591-19.04-19.12-19.04H334.779z M234.379,256.368
		c-10.516,0-19.04,8.525-19.04,19.04s8.525,19.04,19.04,19.04c10.516,0,19.04-8.525,19.04-19.04
		c-0.044-10.528-8.591-19.04-19.12-19.04H234.379z M133.979,256.368c-10.515,0.133-18.931,8.764-18.798,19.279
		c0.133,10.515,8.764,18.931,19.279,18.798c10.389-0.131,18.755-8.567,18.8-18.957c0.001-10.56-8.559-19.121-19.118-19.121
		c-0.081,0-0.161,0-0.242,0.001H133.979z"/>
	<path style="fill:#FCC00F;" d="M435.099,180.048c-13.221-0.95-23.168-12.438-22.218-25.658
		c0.95-13.221,12.438-23.168,25.658-22.218c13.221,0.95,23.168,12.438,22.218,25.658c-0.855,11.899-10.32,21.363-22.218,22.218
		h-1.28H435.099z"/>
</g>
<g>
	<path style="fill:#3A302B;" d="M133.899,248.368c-14.933,0.177-26.895,12.425-26.718,27.358
		c0.177,14.933,12.426,26.895,27.358,26.718c14.776-0.175,26.675-12.179,26.72-26.956c0.001-14.978-12.141-27.12-27.119-27.121
		C134.06,248.367,133.98,248.367,133.899,248.368z M133.899,286.528c-6.095-0.177-10.892-5.261-10.715-11.355
		c0.177-6.095,5.261-10.892,11.355-10.715c5.968,0.173,10.717,5.06,10.72,11.031c0.003,6.097-4.938,11.042-11.035,11.045
		C134.116,286.533,134.008,286.531,133.899,286.528z"/>
	<path style="fill:#3A302B;" d="M234.299,248.368c-14.934,0-27.04,12.106-27.04,27.04s12.106,27.04,27.04,27.04
		c14.934,0,27.04-12.106,27.04-27.04C261.296,260.492,249.215,248.412,234.299,248.368z M234.299,286.528
		c-6.097,0-11.04-4.943-11.04-11.04s4.943-11.04,11.04-11.04c6.097,0,11.04,4.943,11.04,11.04S240.397,286.528,234.299,286.528
		C234.299,286.528,234.299,286.528,234.299,286.528z"/>
	<path style="fill:#3A302B;" d="M435.099,125.168c-17.362,0.275-31.213,14.572-30.939,31.933
		c0.196,12.382,7.642,23.496,19.019,28.387l-40.4,56l-29.52-74.24c16.652-4.764,26.288-22.125,21.524-38.776
		s-22.125-26.288-38.776-21.524c-16.652,4.764-26.288,22.125-21.524,38.776c2.529,8.838,8.807,16.121,17.176,19.924l-40.56,73.2
		l-46.08-128.56c16.339-5.876,24.821-23.886,18.945-40.225s-23.886-24.821-40.225-18.945s-24.821,23.886-18.945,40.225
		c3.174,8.824,10.121,15.771,18.945,18.945l-46.48,128.56l-40-72.4c16.33-6.031,24.679-24.158,18.648-40.488
		c-6.031-16.33-24.158-24.679-40.488-18.648c-16.33,6.031-24.679,24.158-18.648,40.488c3.192,8.643,10.005,15.456,18.648,18.648
		l-29.52,75.04l-40.96-56.56c15.684-7.452,22.357-26.206,14.906-41.89c-7.452-15.684-26.206-22.357-41.89-14.906
		c-15.684,7.451-22.357,26.206-14.906,41.89c3.971,8.358,11.423,14.543,20.37,16.906v222.56c0,4.418,3.582,8,8,8h405.84
		c4.418,0,8-3.582,8-8v-223.2c16.437-5.46,25.335-23.21,19.876-39.647C460.845,133.724,448.711,125.049,435.099,125.168
		L435.099,125.168z M329.259,137.488c0-8.527,6.913-15.44,15.44-15.44s15.44,6.913,15.44,15.44c0,8.527-6.913,15.44-15.44,15.44
		C336.19,152.884,329.303,145.997,329.259,137.488z M218.859,81.488c0-8.527,6.913-15.44,15.44-15.44s15.44,6.913,15.44,15.44
		s-6.913,15.44-15.44,15.44c-8.571-0.037-15.49-7.015-15.453-15.587c0.001-0.191,0.005-0.382,0.013-0.573V81.488z M110.699,137.488
		c0-8.527,6.913-15.44,15.44-15.44s15.44,6.913,15.44,15.44c0,8.527-6.913,15.44-15.44,15.44
		C117.63,152.884,110.743,145.997,110.699,137.488z M30.699,172.368c-8.554-0.552-15.04-7.934-14.488-16.488
		c0.552-8.554,7.934-15.04,16.488-14.488c8.554,0.552,15.04,7.934,14.488,16.488c-0.503,7.784-6.704,13.985-14.488,14.488
		c-0.749-0.247-1.531-0.382-2.32-0.4L30.699,172.368z M39.419,266.128c5.169,3.149,6.807,9.893,3.658,15.062
		c-0.91,1.494-2.164,2.748-3.658,3.658V266.128z M429.259,401.488H39.419v-30.56h169.2c4.314,14.205,19.327,22.223,33.531,17.909
		c8.584-2.607,15.302-9.325,17.909-17.909h169.2V401.488z M223.259,362.928c0-6.097,4.943-11.04,11.04-11.04
		c6.097,0,11.04,4.943,11.04,11.04c0,6.097-4.943,11.04-11.04,11.04S223.259,369.025,223.259,362.928L223.259,362.928
		L223.259,362.928z M429.259,354.928h-169.2c-4.314-14.205-19.326-22.223-33.531-17.909c-8.584,2.607-15.302,9.325-17.909,17.909
		h-169.2v-30.8h389.84V354.928z M429.259,284.848c-5.169-3.149-6.807-9.893-3.658-15.062c0.91-1.494,2.164-2.748,3.658-3.658
		V284.848z M429.259,249.088c-14.58,3.23-23.782,17.668-20.552,32.248c2.273,10.263,10.289,18.278,20.552,20.552v6.32H39.419v-6.32
		c14.58-3.23,23.782-17.668,20.552-32.248c-2.273-10.263-10.289-18.278-20.552-20.552v-44.56l41.84,58.32
		c2.593,3.578,7.595,4.376,11.172,1.783c1.235-0.895,2.188-2.124,2.748-3.543l32-80l44.96,81.12
		c2.127,3.873,6.991,5.288,10.863,3.161c1.727-0.949,3.044-2.502,3.697-4.361l48-132.96l48,132.96
		c1.464,4.169,6.03,6.361,10.199,4.897c1.859-0.653,3.412-1.969,4.361-3.697l44.96-81.12l32,80c1.621,4.11,6.267,6.128,10.377,4.508
		c1.419-0.559,2.648-1.513,3.543-2.748l42.08-58.32L429.259,249.088z M437.259,171.888h-0.88h-1.36
		c-8.815-0.619-15.459-8.266-14.841-17.081s8.266-15.459,17.081-14.841c8.815,0.619,15.459,8.266,14.841,17.081
		C451.542,165.001,445.213,171.33,437.259,171.888z"/>
	<path style="fill:#3A302B;" d="M334.699,248.368c-14.934,0-27.04,12.106-27.04,27.04c0,14.934,12.106,27.04,27.04,27.04
		c14.934,0,27.04-12.106,27.04-27.04C361.696,260.492,349.615,248.412,334.699,248.368z M334.699,286.528
		c-6.097,0-11.04-4.943-11.04-11.04c0-6.097,4.943-11.04,11.04-11.04c6.097,0,11.04,4.943,11.04,11.04
		S340.797,286.528,334.699,286.528C334.699,286.528,334.699,286.528,334.699,286.528z"/>
</g>
<g>
</g>
<g>
</g>
<g>
</g>
<g>
</g>
<g>
</g>
<g>
</g>
<g>
</g>
<g>
</g>
<g>
</g>
<g>
</g>
<g>
</g>
<g>
</g>
<g>
</g>
<g>
</g>
<g>
</g>
</svg>
