<?xml version="1.0" encoding="iso-8859-1"?>
<!-- Generator: Adobe Illustrator 19.0.0, SVG Export Plug-In . SVG Version: 6.00 Build 0)  -->
<svg version="1.1" id="Capa_1" xmlns="http://www.w3.org/2000/svg" xmlns:xlink="http://www.w3.org/1999/xlink" x="0px" y="0px"
	 viewBox="0 0 453.784 453.784" style="enable-background:new 0 0 453.784 453.784;" xml:space="preserve">
<path style="fill:#F09052;" d="M193.323,139.692c-24.08,0-43.6-19.52-43.6-43.6s19.52-43.6,43.6-43.6l0,0h129.12l-12.88,13.6
	c-3.908,4.086-6.979,8.896-9.04,14.16l-1.6,5.04h-0.8c0,0-0.64,10.32-0.64,10.8c0.018,2.198,0.205,4.391,0.56,6.56l1.44,9.2h0.72
	l2.24,4.32c1.893,3.65,4.29,7.016,7.12,10l12.88,13.52L193.323,139.692z"/>
<path style="fill:#FCC00F;" d="M177.003,295.852c-31.591-0.012-57.191-25.63-57.179-57.221
	c0.012-31.574,25.605-57.168,57.179-57.179h172.64l-16,14c-6.779,5.945-12.067,13.398-15.44,21.76l-2,4.96h-0.56l-1.12,9.04
	c-0.695,4.882-0.695,9.838,0,14.72l1.2,9.04h0.56l2,4.96c3.378,8.359,8.666,15.811,15.44,21.76l16,14L177.003,295.852z"/>
<path style="fill:#F09052;" d="M76.763,410.332l-68.72-87.44h92.4l27.04,35.52h223.12l34.08-35.52h61.2l-2.96,10.24
	c-7.463,25.073-17.072,49.456-28.72,72.88l-2.24,4.32H76.763z"/>
<path style="fill:#FCC00F;" d="M101.883,442.252l-25.04-32h336l-8,12.48c-8.88,13.28-16.72,19.44-24.64,19.44L101.883,442.252z"/>
<path style="fill:#3A302B;" d="M445.803,314.892h-61.12c-2.178,0.008-4.258,0.904-5.76,2.48l-32,33.04h-93.52v-46.56h117.52
	c4.418,0,8-3.582,8-8s-3.582-8-8-8c-27.172-0.012-49.191-22.048-49.179-49.221c0.012-27.156,22.023-49.168,49.179-49.179
	c4.418,0,8-3.582,8-8s-3.582-8-8-8h-117.52v-25.76h88c4.418,0,8-3.582,8-8s-3.582-8-8-8c-19.661,0-35.6-15.939-35.6-35.6
	s15.939-35.6,35.6-35.6c4.418,0,8-3.582,8-8s-3.582-8-8-8h-88v-32.96c0-4.418-3.582-8-8-8s-8,3.582-8,8v33.04h-44.08
	c-28.498,0-51.6,23.102-51.6,51.6s23.102,51.6,51.6,51.6h44.08v25.68h-60.4c-36.009,0-65.2,29.191-65.2,65.2s29.191,65.2,65.2,65.2
	h60.4v46.56h-106l-24.64-32c-1.527-1.984-3.896-3.139-6.4-3.12H8.043c-4.418-0.024-8.019,3.538-8.043,7.957
	c-0.01,1.815,0.598,3.579,1.723,5.003l93.84,118.96c1.527,1.932,3.858,3.053,6.32,3.04h277.68c35.76,0,65.6-96,73.92-125.28
	c1.196-4.253-1.282-8.671-5.536-9.867c-0.801-0.225-1.633-0.324-2.464-0.293L445.803,314.892z M193.323,131.692
	c-19.661,0-35.6-15.939-35.6-35.6s15.939-35.6,35.6-35.6l0,0h110.48c-4.629,4.851-8.27,10.558-10.72,16.8h-24c-4.418,0-8,3.582-8,8
	s3.582,8,8,8h20.48v2.8c0.002,2.679,0.216,5.354,0.64,8h-36.24c-4.418,0-8,3.582-8,8s3.582,8,8,8h41.36
	c2.255,4.326,5.11,8.312,8.48,11.84L193.323,131.692z M177.323,287.772c-27.172-0.012-49.191-22.048-49.179-49.221
	c0.012-27.156,22.023-49.168,49.179-49.179h151.2c-7.733,6.77-13.762,15.266-17.6,24.8h-38.56c-4.418,0-8,3.582-8,8
	c0,4.418,3.582,8,8,8h34c-0.349,2.653-0.536,5.324-0.56,8c0.006,2.809,0.193,5.615,0.56,8.4h-46.08c-4.418,0-8,3.582-8,8
	s3.582,8,8,8h50.32c3.84,9.533,9.87,18.028,17.6,24.8L177.323,287.772z M379.883,434.172h-274.16l-12.48-16h304
	c-6.24,10-12.48,16.08-17.68,16.08L379.883,434.172z M407.243,402.172H80.683l-56.16-71.28h72l24.64,32
	c1.527,1.984,3.896,3.139,6.4,3.12h223.04c2.178-0.008,4.258-0.904,5.76-2.48l32-33.04h46.56c-7.247,24.708-16.615,48.745-28,71.84
	L407.243,402.172z"/>
<g>
</g>
<g>
</g>
<g>
</g>
<g>
</g>
<g>
</g>
<g>
</g>
<g>
</g>
<g>
</g>
<g>
</g>
<g>
</g>
<g>
</g>
<g>
</g>
<g>
</g>
<g>
</g>
<g>
</g>
</svg>
